# xmcd CD database file
#
# Track frame offsets:
#	182
#	14522
#	23185
#	38177
#	49942
#	60232
#	77052
#	89560
#	105460
#	117442
#	129172
#	139192
#
# Disc length: 2048 seconds
#
# Revision: 2
# Processed by: cddbd v1.5.1PL0 Copyright (c) Steve Scherf et al.
# Submitted via: CDex 1.51
#
DISCID=9907fe0c
DTITLE=Stan Coster - My People
DYEAR=1900
DGENRE=Country
TTITLE0=By A Fire Of Gidgee Coal
TTITLE1=Cunnamulla Feller's Wedding
TTITLE2=Man Beyond The Black Stump
TTITLE3=Until Death Us Do Part
TTITLE4=Sunshine
TTITLE5=Old Gilbert
TTITLE6=Tamworth Great Country Star
TTITLE7=Only A Bushman Would Know
TTITLE8=Twilight Dreams
TTITLE9=My People
TTITLE10=Booze Loving Battler
TTITLE11=Seven Years Is A Big Price To Pay
EXTD=
EXTT0=
EXTT1=
EXTT2=
EXTT3=
EXTT4=
EXTT5=
EXTT6=
EXTT7=
EXTT8=
EXTT9=
EXTT10=
EXTT11=
PLAYORDER=
